<svg xmlns="http://www.w3.org/2000/svg" width="235.44" height="62.46" viewBox="0 0 235.44 62.46"><g id="Grupo_14" data-name="Grupo 14" transform="translate(-122.016 -43.43)"><g id="Grupo_13" data-name="Grupo 13" transform="translate(154.215 58.03)"><path id="Trazado_28" data-name="Trazado 28" d="M181.526,63.287a10.757,10.757,0,0,0-8.591,4.119.624.624,0,0,1-.5.253h0a.7.7,0,0,1-.305-.075.681.681,0,0,1-.238-.2A11.365,11.365,0,0,0,156.6,65.366a.648.648,0,0,1-.694.068.634.634,0,0,1-.358-.579,1.142,1.142,0,0,0-1.141-1.141h-3.613a1.142,1.142,0,0,0-1.141,1.141V89.191a1.142,1.142,0,0,0,1.141,1.139h3.614a1.142,1.142,0,0,0,1.141-1.139V75.481c0-4.455,2.314-7.012,6.346-7.012,4,0,6.3,2.556,6.3,7.012v13.71a1.142,1.142,0,0,0,1.141,1.139H172.9a1.142,1.142,0,0,0,1.141-1.139V75.481c0-4.455,2.313-7.012,6.347-7.012,4,0,6.3,2.556,6.3,7.012v13.71a1.142,1.142,0,0,0,1.141,1.139H191.4a1.142,1.142,0,0,0,1.141-1.139V74.675a11.487,11.487,0,0,0-3.162-8.485A10.984,10.984,0,0,0,181.526,63.287Z" transform="translate(-149.652 -54.751)" fill="#fff"></path><path id="Trazado_29" data-name="Trazado 29" d="M213.676,63.653h-3.635a1.146,1.146,0,0,0-1.065.732L202.414,81.5a.65.65,0,0,1-.24.3.662.662,0,0,1-.372.114.652.652,0,0,1-.607-.426l-6.31-17.1a1.139,1.139,0,0,0-1.07-.746h-4.074a1.141,1.141,0,0,0-1.134,1.018,1.132,1.132,0,0,0,.076.545l9.661,24.133a.645.645,0,0,1,0,.493l-4.651,11.13a1.141,1.141,0,0,0,.514,1.444,1.142,1.142,0,0,0,.538.135H198.4a1.134,1.134,0,0,0,1.052-.7l15.28-36.619a1.148,1.148,0,0,0,.083-.549,1.143,1.143,0,0,0-.6-.895,1.142,1.142,0,0,0-.538-.135Z" transform="translate(-143.222 -54.691)" fill="#fff"></path><path id="Trazado_30" data-name="Trazado 30" d="M233.348,66.683a.635.635,0,0,1-.365.584.653.653,0,0,1-.364.062.642.642,0,0,1-.339-.144,12.731,12.731,0,0,0-7.7-2.688c-7.312,0-12.62,5.726-12.62,13.617a14.558,14.558,0,0,0,3.651,9.994,12.039,12.039,0,0,0,8.922,3.86,11.614,11.614,0,0,0,7.721-2.758.66.66,0,0,1,.713-.11.635.635,0,0,1,.278.238.627.627,0,0,1,.1.352V90.4a1.14,1.14,0,0,0,1.141,1.139h3.661A1.142,1.142,0,0,0,239.29,90.4V55.961h-5.942Zm0,11.525c0,5.63-3.861,8.575-7.674,8.575-3.721,0-7.674-3.039-7.674-8.671,0-5.537,3.86-8.434,7.674-8.434S233.348,72.609,233.348,78.209Z" transform="translate(-139.365 -55.961)" fill="#fff"></path><path id="Trazado_31" data-name="Trazado 31" d="M251.782,63.287C243.837,63.287,238.5,68.8,238.5,77c0,8.1,5.462,13.759,13.284,13.759,5.42,0,9.7-2.58,11.73-7.079a1.142,1.142,0,0,0-1.039-1.612h-3.989a1.152,1.152,0,0,0-.993.583,6.107,6.107,0,0,1-5.709,3.069,6.85,6.85,0,0,1-7.045-5.638.665.665,0,0,1,.134-.558.647.647,0,0,1,.5-.239h18.141a1.141,1.141,0,0,0,1.136-1.033,18.513,18.513,0,0,0,.086-1.866,12.429,12.429,0,0,0-12.952-13.095ZM244.845,73.61a6.747,6.747,0,0,1,6.7-5.283c3.626,0,6.424,2.143,6.961,5.333a.661.661,0,0,1-.014.287.681.681,0,0,1-.133.254.635.635,0,0,1-.223.169.628.628,0,0,1-.273.059H245.475a.668.668,0,0,1-.288-.066.651.651,0,0,1-.228-.189.642.642,0,0,1-.122-.269.651.651,0,0,1,.009-.3Z" transform="translate(-134.984 -54.751)" fill="#fff"></path><path id="Trazado_32" data-name="Trazado 32" d="M274.876,74.655c-3.029-.838-5.646-1.561-5.646-3.632,0-1.688,1.558-2.695,4.165-2.695,2.421,0,4.072,1.074,4.533,2.949a1.149,1.149,0,0,0,1.11.891h3.651a1.154,1.154,0,0,0,.87-.4,1.141,1.141,0,0,0,.228-.425,1.1,1.1,0,0,0,.03-.484c-.733-4.742-4.559-7.573-10.235-7.573a12.015,12.015,0,0,0-7.488,2.257,6.945,6.945,0,0,0-2.808,5.527c0,5.721,5.278,7.134,9.52,8.27,3.034.813,5.654,1.515,5.654,3.489,0,1.78-1.742,2.886-4.545,2.886-2.392,0-4.345-1.222-4.857-3.04a1.138,1.138,0,0,0-1.1-.849H264.11a1.147,1.147,0,0,0-.882.415,1.107,1.107,0,0,0-.242.913A8.62,8.62,0,0,0,266.6,88.6a12.765,12.765,0,0,0,7.414,2.158,11.821,11.821,0,0,0,7.467-2.264,7.2,7.2,0,0,0,2.785-5.717C284.095,77.2,278.983,75.791,274.876,74.655Z" transform="translate(-130.944 -54.751)" fill="#fff"></path><path id="Trazado_33" data-name="Trazado 33" d="M295.553,74.655c-3.029-.838-5.648-1.561-5.648-3.632,0-1.688,1.558-2.695,4.168-2.695,2.418,0,4.07,1.074,4.531,2.949a1.149,1.149,0,0,0,1.113.891h3.651a1.125,1.125,0,0,0,.478-.1,1.139,1.139,0,0,0,.39-.295,1.116,1.116,0,0,0,.231-.425,1.129,1.129,0,0,0,.03-.484c-.735-4.742-4.559-7.573-10.235-7.573a12.01,12.01,0,0,0-7.488,2.257,6.948,6.948,0,0,0-2.81,5.527c0,5.721,5.28,7.134,9.521,8.27,3.034.813,5.653,1.515,5.653,3.489,0,1.78-1.74,2.886-4.545,2.886-2.39,0-4.342-1.222-4.857-3.04a1.134,1.134,0,0,0-.4-.611,1.152,1.152,0,0,0-.691-.239h-3.854a1.157,1.157,0,0,0-.884.415,1.113,1.113,0,0,0-.221.43,1.093,1.093,0,0,0-.019.484,8.61,8.61,0,0,0,3.612,5.443,12.765,12.765,0,0,0,7.414,2.158,11.821,11.821,0,0,0,7.467-2.264,7.188,7.188,0,0,0,2.782-5.717C304.769,77.2,299.66,75.791,295.553,74.655Z" transform="translate(-127.531 -54.751)" fill="#fff"></path><path id="Trazado_34" data-name="Trazado 34" d="M316.769,78.7a.653.653,0,0,1,0-.882l10.1-10.979a1.151,1.151,0,0,0,.284-.584,1.116,1.116,0,0,0-.082-.645,1.136,1.136,0,0,0-1.043-.682H321a1.123,1.123,0,0,0-.485.107,1.148,1.148,0,0,0-.393.3l-7.63,9.195a.65.65,0,0,1-1.151-.416V55.961h-5.9V90.4a1.14,1.14,0,0,0,1.141,1.139H310.2a1.146,1.146,0,0,0,1.141-1.139V82.47a.645.645,0,0,1,.116-.373.636.636,0,0,1,.308-.238.652.652,0,0,1,.389-.021.661.661,0,0,1,.331.206l7.832,9.1a1.132,1.132,0,0,0,.862.4h4.846a1.14,1.14,0,0,0,.838-1.913Z" transform="translate(-123.931 -55.961)" fill="#fff"></path></g><path id="Trazado_35" data-name="Trazado 35" d="M153.229,43.43l-28.219.017a3,3,0,0,0-2.994,3,17.095,17.095,0,0,0,17.1,17.1l.289,0V75.89h-6.117a3,3,0,0,0,0,5.991H139.4V87.1H126.283a3,3,0,1,0,0,5.991H142.4a3,3,0,0,0,3-3V62.352A17.131,17.131,0,0,0,156.2,46.777a3,3,0,0,0-2.976-3.347Zm-3.418,5.993a11.107,11.107,0,0,1-21.394.014Z" transform="translate(0 0)" fill="#3fdbbf"></path></g></svg>